<svg width="40" height="40" viewBox="0 0 40 40" fill="none" xmlns="http://www.w3.org/2000/svg">
<g clip-path="url(#clip0_25_6223)">
<path d="M24.969 30.9312L20.0271 33.7551L15.0853 30.9312C10.3117 28.2034 7.36572 23.1269 7.36572 17.6289V4.21879L20.0272 1.19678L32.6887 4.21879V17.629C32.6886 23.1269 29.7426 28.2034 24.969 30.9312Z" stroke="#309689" stroke-width="2" stroke-miterlimit="10"/>
<path d="M15.1292 30.9748L9.68707 37.9295L7.04176 33.3917L2.03906 31.7909L8.67981 23.7188" stroke="#309689" stroke-width="2" stroke-miterlimit="10"/>
<path d="M24.8994 31.0011L30.3153 37.9297L32.9605 33.3919L37.9633 31.7911L31.4034 23.7998" stroke="#309689" stroke-width="2" stroke-miterlimit="10"/>
<path d="M20.0274 9.68506L22.4382 12.9858L26.3224 14.2587L23.9282 17.5715L23.9179 21.6589L20.0274 20.4055L16.1368 21.6589L16.1266 17.5715L13.7324 14.2587L17.6166 12.9858L20.0274 9.68506Z" stroke="#309689" stroke-width="2" stroke-miterlimit="10"/>
</g>
<defs>
<clipPath id="clip0_25_6223">
<rect width="40" height="40" fill="white"/>
</clipPath>
</defs>
</svg>
