<svg width="36" height="37" viewBox="0 0 36 37" fill="none" xmlns="http://www.w3.org/2000/svg">
<mask id="mask0_25_6015" style="mask-type:luminance" maskUnits="userSpaceOnUse" x="0" y="0" width="36" height="37">
<path d="M0 0.499996H36V36.5H0V0.499996Z" fill="white"/>
</mask>
<g mask="url(#mask0_25_6015)">
<path d="M32.1695 31.9855C29.2548 27.2153 23.9993 24.0313 18 24.0313M18 24.0313C12.0006 24.0313 6.74515 27.2153 3.83041 31.9855M18 24.0313C22.5822 24.0313 26.2969 20.3166 26.2969 15.7344C26.2969 11.1521 22.5822 7.43752 18 7.43752C13.4177 7.43752 9.70313 11.1521 9.70313 15.7344C9.70313 20.3166 13.4177 24.0313 18 24.0313ZM4.46618 4.37752L3.87752 4.96625C2.29514 6.54856 1.40625 8.69464 1.40625 10.9324V26.0676C1.40625 28.3054 2.29514 30.4514 3.87752 32.0338L4.46618 32.6225C6.04849 34.2048 8.19464 35.0938 10.4324 35.0938H25.5675C27.8053 35.0938 29.9514 34.2048 31.5338 32.6225L32.1225 32.0338C33.7048 30.4514 34.5938 28.3054 34.5938 26.0676V10.9324C34.5938 8.69464 33.7048 6.54856 32.1225 4.96625L31.5338 4.37752C29.9514 2.79521 27.8053 1.90625 25.5675 1.90625H10.4324C8.19464 1.90625 6.04849 2.79521 4.46618 4.37752Z" stroke="#309689" stroke-width="2" stroke-miterlimit="10" stroke-linecap="round" stroke-linejoin="round"/>
</g>
</svg>
