<svg width="40" height="35" viewBox="0 0 40 35" fill="none" xmlns="http://www.w3.org/2000/svg">
<path d="M10.9375 7.03125V3.5525C10.9375 2.16797 12.0703 1.03516 13.4548 1.03516H26.5452C27.9298 1.03516 29.0625 2.16797 29.0625 3.5525V7.03125" stroke="#309689" stroke-width="2" stroke-miterlimit="22.9256" stroke-linecap="round" stroke-linejoin="round"/>
<path d="M37.2656 18.2812V31.6211C37.2656 32.9099 36.2107 33.9648 34.9219 33.9648H5.07812C3.7893 33.9648 2.73438 32.9102 2.73438 31.6211V18.3594" stroke="#309689" stroke-width="2" stroke-miterlimit="22.9256" stroke-linecap="round" stroke-linejoin="round"/>
<path d="M16.875 22.2266C8.61023 21.754 1.17188 19.3906 1.17188 15.1365V9.58984C1.17188 8.29898 2.22469 7.24609 3.51562 7.24609H36.4844C37.7752 7.24609 38.8281 8.29906 38.8281 9.58984V15.1365C38.8281 19.4173 31.2958 21.7835 22.9688 22.2352" stroke="#309689" stroke-width="2" stroke-miterlimit="22.9256" stroke-linecap="round" stroke-linejoin="round"/>
<path fill-rule="evenodd" clip-rule="evenodd" d="M17.1094 19.9023H22.8906V22.5977C22.8906 24.0801 21.6777 25.293 20.1953 25.293H19.8047C18.3223 25.293 17.1094 24.0801 17.1094 22.5977V19.9023Z" stroke="#309689" stroke-width="2" stroke-miterlimit="22.9256" stroke-linecap="round" stroke-linejoin="round"/>
</svg>
