<svg width="152" height="24" viewBox="0 0 152 24" fill="none" xmlns="http://www.w3.org/2000/svg">
<path d="M11.0776 2.2022C11.4203 1.38396 12.5797 1.38396 12.9224 2.2022L14.9535 7.05165C15.0977 7.39588 15.4215 7.63119 15.7935 7.66193L21.0332 8.09509C21.9173 8.16818 22.2756 9.27075 21.6033 9.84953L17.6188 13.2798C17.336 13.5233 17.2123 13.904 17.298 14.2673L18.5052 19.3844C18.7089 20.2478 17.771 20.9293 17.0128 20.4687L12.5191 17.7393C12.2002 17.5456 11.7998 17.5456 11.4809 17.7393L6.9872 20.4687C6.229 20.9293 5.2911 20.2478 5.49479 19.3844L6.702 14.2673C6.7877 13.904 6.66399 13.5233 6.38116 13.2798L2.39671 9.84953C1.72442 9.27075 2.08267 8.16818 2.96677 8.09509L8.20652 7.66193C8.57846 7.63119 8.90233 7.39588 9.0465 7.05165L11.0776 2.2022Z" fill="#FFC107"/>
<path d="M43.0776 2.2022C43.4203 1.38396 44.5797 1.38396 44.9224 2.2022L46.9535 7.05165C47.0977 7.39588 47.4215 7.63119 47.7935 7.66193L53.0332 8.09509C53.9173 8.16818 54.2756 9.27075 53.6033 9.84953L49.6188 13.2798C49.336 13.5233 49.2123 13.904 49.298 14.2673L50.5052 19.3844C50.7089 20.2478 49.771 20.9293 49.0128 20.4687L44.5191 17.7393C44.2002 17.5456 43.7998 17.5456 43.4809 17.7393L38.9872 20.4687C38.229 20.9293 37.2911 20.2478 37.4948 19.3844L38.702 14.2673C38.7877 13.904 38.664 13.5233 38.3812 13.2798L34.3967 9.84953C33.7244 9.27075 34.0827 8.16818 34.9668 8.09509L40.2065 7.66193C40.5785 7.63119 40.9023 7.39588 41.0465 7.05165L43.0776 2.2022Z" fill="#FFC107"/>
<path d="M75.0776 2.2022C75.4203 1.38396 76.5797 1.38396 76.9224 2.2022L78.9535 7.05165C79.0977 7.39588 79.4215 7.63119 79.7935 7.66193L85.0332 8.09509C85.9173 8.16818 86.2756 9.27075 85.6033 9.84953L81.6188 13.2798C81.336 13.5233 81.2123 13.904 81.298 14.2673L82.5052 19.3844C82.7089 20.2478 81.771 20.9293 81.0128 20.4687L76.5191 17.7393C76.2002 17.5456 75.7998 17.5456 75.4809 17.7393L70.9872 20.4687C70.229 20.9293 69.2911 20.2478 69.4948 19.3844L70.702 14.2673C70.7877 13.904 70.664 13.5233 70.3812 13.2798L66.3967 9.84953C65.7244 9.27075 66.0827 8.16818 66.9668 8.09509L72.2065 7.66193C72.5785 7.63119 72.9023 7.39588 73.0465 7.05165L75.0776 2.2022Z" fill="#FFC107"/>
<path d="M107.078 2.2022C107.42 1.38396 108.58 1.38396 108.922 2.2022L110.953 7.05165C111.098 7.39588 111.422 7.63119 111.793 7.66193L117.033 8.09509C117.917 8.16818 118.276 9.27075 117.603 9.84953L113.619 13.2798C113.336 13.5233 113.212 13.904 113.298 14.2673L114.505 19.3844C114.709 20.2478 113.771 20.9293 113.013 20.4687L108.519 17.7393C108.2 17.5456 107.8 17.5456 107.481 17.7393L102.987 20.4687C102.229 20.9293 101.291 20.2478 101.495 19.3844L102.702 14.2673C102.788 13.904 102.664 13.5233 102.381 13.2798L98.3967 9.84953C97.7244 9.27075 98.0827 8.16818 98.9668 8.09509L104.207 7.66193C104.578 7.63119 104.902 7.39588 105.047 7.05165L107.078 2.2022Z" fill="#FFC107"/>
<path d="M139.078 2.2022C139.42 1.38396 140.58 1.38396 140.922 2.2022L142.953 7.05165C143.098 7.39588 143.422 7.63119 143.793 7.66193L149.033 8.09509C149.917 8.16818 150.276 9.27075 149.603 9.84953L145.619 13.2798C145.336 13.5233 145.212 13.904 145.298 14.2673L146.505 19.3844C146.709 20.2478 145.771 20.9293 145.013 20.4687L140.519 17.7393C140.2 17.5456 139.8 17.5456 139.481 17.7393L134.987 20.4687C134.229 20.9293 133.291 20.2478 133.495 19.3844L134.702 14.2673C134.788 13.904 134.664 13.5233 134.381 13.2798L130.397 9.84953C129.724 9.27075 130.083 8.16818 130.967 8.09509L136.207 7.66193C136.578 7.63119 136.902 7.39588 137.047 7.05165L139.078 2.2022Z" fill="#FFC107"/>
</svg>
