<svg width="123" height="28" viewBox="0 0 123 28" fill="none" xmlns="http://www.w3.org/2000/svg">
<path fill-rule="evenodd" clip-rule="evenodd" d="M99.6341 8.74654C100.102 9.55358 100.255 10.4718 100.305 11.504L100.372 12.8799V22.5009L100.44 23.8782C100.575 26.1275 102.234 27.7907 104.501 27.9321L105.871 28V12.8799L105.939 11.504C105.995 10.4833 106.147 9.5478 106.622 8.73499C107.106 7.90129 107.801 7.20959 108.636 6.72935C109.472 6.2491 110.42 5.99721 111.384 5.99897C112.348 6.00073 113.294 6.25606 114.128 6.73935C114.963 7.22263 115.655 7.91686 116.136 8.75231C116.604 9.55935 116.749 10.4949 116.806 11.504L116.874 12.8756V22.5009L116.941 23.8782C117.083 26.139 118.729 27.8022 121.003 27.9321L122.373 28V11.504C122.373 8.58711 121.214 5.78958 119.152 3.72659C117.09 1.66359 114.293 0.50404 111.376 0.502891C109.815 0.501245 108.271 0.832789 106.848 1.47537C105.425 2.11796 104.156 3.05678 103.125 4.22913C102.094 3.05725 100.824 2.11865 99.4014 1.47587C97.9787 0.833096 96.4353 0.50091 94.8741 0.501447C92.5902 0.501447 90.4708 1.19443 88.7152 2.39128C87.644 1.19588 85.2474 0.501447 83.8715 0.501447V28L85.2474 27.9321C87.5487 27.7806 89.2119 26.1621 89.3014 23.8782L89.375 22.5009V12.8799L89.4428 11.504C89.5006 10.466 89.645 9.55358 90.1142 8.74076C90.5986 7.90758 91.2931 7.21605 92.1283 6.73522C92.9636 6.25439 93.9104 6.00108 94.8741 6.00058C95.8386 6.00079 96.7861 6.2546 97.6216 6.73656C98.457 7.21853 99.1511 7.91169 99.6341 8.74654V8.74654ZM5.49913 27.9336L6.875 28H27.4986L27.4307 26.6285C27.2445 24.3676 25.6434 22.716 23.3753 22.5687L21.9994 22.5009H9.62673L26.1227 5.99914L26.0548 4.62905C25.948 2.34508 24.2791 0.694906 21.9994 0.569302L20.6236 0.507222L0 0.501447L0.0678549 1.87731C0.24832 4.11652 1.87251 5.80279 4.12182 5.93273L5.49913 6.00058H17.8718L1.37587 22.5023L1.44372 23.8782C1.57943 26.1448 3.21517 27.7863 5.49913 27.9321V27.9336ZM78.4735 4.52654C79.7504 5.80325 80.7634 7.31901 81.4545 8.98726C82.1456 10.6555 82.5014 12.4435 82.5014 14.2493C82.5014 16.055 82.1456 17.8431 81.4545 19.5113C80.7634 21.1795 79.7504 22.6953 78.4735 23.972C75.8935 26.5499 72.3956 27.9979 68.7486 27.9979C65.1015 27.9979 61.6036 26.5499 59.0236 23.972C53.6544 18.6028 53.6544 9.89574 59.0236 4.52654C60.2995 3.25026 61.8142 2.23777 63.4813 1.5469C65.1484 0.85602 66.9353 0.500285 68.7399 0.500003C70.5474 0.498748 72.3375 0.853857 74.0077 1.54502C75.6778 2.23618 77.1954 3.24983 78.4735 4.52799V4.52654ZM74.5826 8.42026C76.1292 9.96796 76.9979 12.0664 76.9979 14.2543C76.9979 16.4423 76.1292 18.5407 74.5826 20.0884C73.0349 21.6349 70.9365 22.5037 68.7486 22.5037C66.5606 22.5037 64.4622 21.6349 62.9145 20.0884C61.3679 18.5407 60.4992 16.4423 60.4992 14.2543C60.4992 12.0664 61.3679 9.96796 62.9145 8.42026C64.4622 6.87373 66.5606 6.00499 68.7486 6.00499C70.9365 6.00499 73.0349 6.87373 74.5826 8.42026V8.42026ZM39.8828 0.500003C41.6875 0.500475 43.4744 0.856437 45.1416 1.54756C46.8087 2.23869 48.3233 3.25144 49.599 4.52799C54.9697 9.89574 54.9697 18.6043 49.599 23.972C47.0191 26.5499 43.5212 27.9979 39.8741 27.9979C36.227 27.9979 32.7292 26.5499 30.1492 23.972C24.78 18.6028 24.78 9.89574 30.1492 4.52654C31.425 3.25026 32.9397 2.23777 34.6069 1.5469C36.274 0.85602 38.0609 0.500285 39.8655 0.500003H39.8828ZM45.7082 8.41737C47.2552 9.96513 48.1242 12.0639 48.1242 14.2522C48.1242 16.4405 47.2552 18.5392 45.7082 20.087C44.1605 21.6335 42.0621 22.5022 39.8741 22.5022C37.6862 22.5022 35.5878 21.6335 34.0401 20.087C32.4935 18.5393 31.6248 16.4408 31.6248 14.2529C31.6248 12.0649 32.4935 9.96651 34.0401 8.41881C35.5878 6.87228 37.6862 6.00355 39.8741 6.00355C42.0621 6.00355 44.1605 6.87228 45.7082 8.41881V8.41737Z" fill="#ADB5BD"/>
</svg>
